<svg xmlns="http://www.w3.org/2000/svg" xmlns:xlink="http://www.w3.org/1999/xlink" width="24" height="24" viewBox="0 0 24 24">
    <defs>
        <path id="a" d="M0 0h24v24H0z"/>
    </defs>
    <g fill="none" fill-rule="evenodd">
        <mask id="b" fill="#fff">
            <use xlink:href="#a"/>
        </mask>
        <path fill="#4267B2" d="M22.667 0H1.333C.597 0 0 .597 0 1.333v21.334C0 23.403.597 24 1.333 24H12.82v-9.28H9.703v-3.633h3.117V8.42c0-3.1 1.893-4.79 4.667-4.79a25.82 25.82 0 0 1 2.793.143V7h-1.913c-1.504 0-1.797.717-1.797 1.767v2.313h3.597l-.467 3.633h-3.13V24h6.097c.736 0 1.333-.597 1.333-1.333V1.333C24 .597 23.403 0 22.667 0z" mask="url(#b)"/>
    </g>
</svg>
